<svg xmlns="http://www.w3.org/2000/svg" viewBox="0 0 900 520"><defs><linearGradient id="sky" x1="0" y1="0" x2="0" y2="1"><stop stop-color="#2bb4ef"/><stop offset=".68" stop-color="#c6f2ff"/><stop offset="1" stop-color="#3c8459"/></linearGradient><linearGradient id="panel" x1="0" y1="0" x2="1" y2="1"><stop stop-color="#061a31" stop-opacity=".94"/><stop offset="1" stop-color="#0d3154" stop-opacity=".82"/></linearGradient></defs><rect width="900" height="520" rx="34" fill="url(#sky)"/><circle cx="735" cy="96" r="54" fill="#fff0a8" opacity=".88"/><path d="M0 350 105 246l95 75 120-135 122 146 106-91 132 113 95-83 125 85v164H0z" fill="#477b67" opacity=".75"/><path d="M480 430 630 110h42l151 320z" fill="#50585f"/><path d="M648 155h8v46h-8zm-26 64h10v58h-10zm58 0h10v58h-10zm-84 84h13v78h-13zm108 0h13v78h-13z" fill="#fff" opacity=".75"/><g transform="translate(546 248) rotate(-18)"><path d="m-84 8 75-24 104-66 22 15-78 78 66 28-15 20-86-20-51 46-22-8 24-58-48 9z" fill="#fff"/><path d="M5 11 44 1" stroke="#5acfea" stroke-width="8" stroke-linecap="round"/></g><g font-family="system-ui,sans-serif" font-weight="900" text-anchor="middle"><g transform="translate(640 92)"><circle r="40" fill="#07345d" stroke="#fff" stroke-width="7"/><text y="12" font-size="36" fill="#fff">B</text></g><g transform="translate(765 182)"><circle r="34" fill="#0b6f8f" stroke="#fff" stroke-width="7"/><text y="11" font-size="31" fill="#fff">E</text></g><g transform="translate(560 145)"><circle r="31" fill="#146092" stroke="#fff" stroke-width="7"/><text y="10" font-size="29" fill="#fff">E</text></g></g><rect x="36" y="42" width="405" height="330" rx="30" fill="url(#panel)" stroke="#fff" stroke-opacity=".14"/><text x="74" y="102" font-family="system-ui,sans-serif" font-size="22" font-weight="800" letter-spacing="5" fill="#68e6ff">SPELL • READ • FLY</text><text x="70" y="178" font-family="system-ui,sans-serif" font-size="66" font-weight="950" fill="#fff">Spelling</text><text x="70" y="245" font-family="system-ui,sans-serif" font-size="66" font-weight="950" fill="#8ff2b8">Bee</text><text x="72" y="300" font-family="system-ui,sans-serif" font-size="24" fill="#c8e3f3">Master your weekly words.</text><text x="72" y="337" font-family="system-ui,sans-serif" font-size="24" fill="#c8e3f3">Fuel your flight with every letter.</text></svg>